<?xml version="1.0" encoding="utf-8"?>
<!-- Generator: Adobe Illustrator 24.3.0, SVG Export Plug-In . SVG Version: 6.00 Build 0)  -->
<svg version="1.1" id="Layer_1" xmlns="http://www.w3.org/2000/svg" xmlns:xlink="http://www.w3.org/1999/xlink" x="0px" y="0px"
	 viewBox="0 0 2000 551.7" style="enable-background:new 0 0 2000 551.7;" xml:space="preserve">
<style type="text/css">
	.st0{fill:#00AA55;}
	.st1{fill:#FFFFFF;}
</style>
<g>
	<g>
		<g>
			<g>
				<g>
					<g>
						<path d="M220.55,387.45c-73.23-5.28-131.3-65.9-133.87-139.27c-0.15-4.21-0.11-8.34,0.1-12.45h91.64
							c0.96,4.66,9.43,46.76,12.89,63.57c0.94,4.58,4.36,7.06,8.63,6.71c3.86-0.31,6.75-3.37,7.22-7.63
							c3.06-27.73,10.3-91.36,10.85-95.44c0.55,0.53,14.34,155.2,15.09,164.08c0.36,4.29,3.8,7.14,7.95,7.14
							c4.03,0.01,7.34-3.01,7.74-7.32c1.43-15.28,14.18-160.62,14.42-162.81c2.79,7.73,20.52,77.58,24.33,92.11
							c4.42,16.87,30.08,17.25,32.83,0c1.42-9,6.32-51.76,6.32-51.76c0.2-4.96,4.28-8.87,9.25-8.87
							c20.84-0.01,39.52-0.02,39.86,0.03c0.13,2.52,0.19,5.06,0.19,7.61C375.98,326.61,305.32,393.57,220.55,387.45z"/>
						<g>
							<path class="st0" d="M331.17,219.22c-11.19,0.01-20.35,8.9-20.67,20.08l-4.15,46.36c-0.63,2.5-4.15,2.5-4.81,0.03
								c-2.33-9.01-29.2-111.75-34.58-131.53c-1.15-4.23-4.26-6.43-8.41-6.13c-3.85,0.25-6.73,2.99-7.33,7.17
								c-0.36,2.55-0.49,5.16-0.71,7.77c-1.32,15.3-9.94,105.26-10.11,105.95c-1.07-12.39-12.44-142.71-13.3-150.78
								c-0.47-4.15-3.43-6.84-7.31-7.17c-3.41-0.25-6.92,2.12-8.02,5.66c-0.58,1.79-0.8,3.71-0.99,5.6
								c-1.92,17.36-14.2,122.68-14.2,122.68s-2.17-11.35-3.32-16.62c-1.62-7.25-3.87-9.01-11.21-9.01
								c-27.85,0-82.9-0.05-93.48-0.05c11.4-68.54,70.95-120.79,142.71-120.79s131.31,52.22,142.73,120.73L331.17,219.22z"/>
						</g>
					</g>
				</g>
			</g>
			<g>
				<g>
					<g>
						<path d="M429.97,109.38h167.21v50.89h-114.5v60.7h99.24v50.89h-99.24v105.05h-52.71V109.38z"/>
					</g>
				</g>
				<g>
					<g>
						<path d="M639.71,218.06h50.89v158.85h-50.89V218.06z"/>
					</g>
				</g>
				<g>
					<g>
						<path d="M757.84,148.27h50.89v69.07h38.53v39.62h-38.53v119.96h-50.89V256.96h-24.72v-39.62h24.72V148.27z"/>
					</g>
				</g>
				<g>
					<g>
						<path d="M972.67,255.14c-5.82,0-11.27,1.15-16.36,3.45c-5.09,2.31-9.58,5.4-13.45,9.27c-3.88,3.88-6.85,8.24-8.91,13.09
							c-2.06,4.85-3.09,9.94-3.09,15.27c0,7.51,1.87,14.12,5.63,19.81c3.75,5.7,8.9,10.12,15.45,13.27
							c6.54,3.15,13.69,4.73,21.45,4.73c8,0,14.6-1.15,19.81-3.45c5.21-2.3,9.57-5.39,13.09-9.27c3.51-3.87,6.36-8.12,8.54-12.72
							l33.81,27.99c-6.54,12.36-16.54,22.9-29.99,31.62c-13.45,8.72-30.96,13.09-52.53,13.09c-16.72,0-31.87-3.52-45.44-10.54
							c-13.58-7.03-24.36-16.72-32.35-29.08s-12-26.54-12-42.53c0-12.11,2.73-23.26,8.18-33.44c5.45-10.18,12.78-19.02,21.99-26.54
							c9.21-7.51,19.5-13.51,30.9-17.99c11.39-4.48,23.02-6.84,34.9-7.09L972.67,255.14z M1119.89,376.91c-3.4,0-8.42,0-15.09,0
							c-6.67,0-13.51,0-20.54,0c-7.03,0-15.51,0-25.44,0L941.05,218.43c-2.43-3.39-5.45-8.05-9.09-13.99
							c-3.64-5.94-6.79-12.6-9.45-19.99c-2.67-7.39-4-14.84-4-22.36c0-9.69,2.48-19.32,7.45-28.9c4.96-9.57,12.6-17.57,22.9-23.99
							c10.3-6.42,23.32-9.63,39.08-9.63c17.2,0,32.35,3.52,45.44,10.54c13.09,7.03,23.5,15.51,31.26,25.45l-26.54,35.26
							c-7.51-8.24-14.72-14.78-21.63-19.63c-6.91-4.85-13.63-7.27-20.17-7.27c-8.24,0-14.18,2.43-17.81,7.27
							c-3.64,4.85-5.45,10.18-5.45,15.99c0,3.4,0.91,7.09,2.73,11.09c1.82,4,3.69,7.63,5.63,10.91c1.94,3.27,3.27,5.52,4,6.72
							L1119.89,376.91z M1051.92,214.06h47.98l-45.07,113.41l-38.17-22.54L1051.92,214.06z"/>
					</g>
				</g>
				<g>
					<g>
						<path d="M1306.37,174.08c-10.18-5.57-20.54-10.18-31.08-13.81c-10.54-3.64-20.42-5.45-29.63-5.45
							c-11.39,0-20.36,2.31-26.9,6.91c-6.54,4.61-9.81,11.51-9.81,20.72c0,6.3,2.48,11.94,7.45,16.9
							c4.96,4.97,11.39,9.39,19.27,13.27c7.87,3.88,16.05,7.4,24.54,10.54c7.75,2.91,15.45,6.36,23.08,10.36
							c7.63,4,14.48,8.97,20.54,14.9c6.05,5.94,10.91,13.33,14.54,22.17c3.64,8.85,5.45,19.69,5.45,32.53
							c0,13.57-3.52,26.17-10.54,37.8c-7.03,11.63-17.33,21.03-30.9,28.17c-13.58,7.15-30.3,10.72-50.16,10.72
							c-10.18,0-20.54-1.04-31.08-3.09c-10.54-2.06-20.9-5.21-31.08-9.45c-10.18-4.24-19.99-9.63-29.44-16.18l23.27-41.08
							c6.3,4.61,13.14,8.67,20.54,12.18c7.39,3.51,14.84,6.24,22.36,8.18c7.51,1.94,14.41,2.91,20.72,2.91
							c6.3,0,12.66-0.91,19.08-2.73c6.42-1.82,11.75-4.91,15.99-9.27c4.24-4.36,6.36-10.42,6.36-18.18c0-5.33-1.76-10.18-5.27-14.54
							c-3.52-4.36-8.24-8.36-14.18-12c-5.94-3.63-12.42-6.78-19.45-9.45c-8.24-3.15-16.72-6.78-25.44-10.91
							c-8.72-4.12-16.9-9.14-24.54-15.08c-7.63-5.94-13.81-13.32-18.54-22.17c-4.73-8.84-7.09-19.69-7.09-32.53
							c0-15.51,3.45-28.95,10.36-40.35c6.91-11.39,16.66-20.41,29.26-27.08c12.6-6.66,27.14-10.36,43.62-11.09
							c21.57,0,39.08,2.55,52.53,7.63c13.45,5.09,25.5,11.15,36.17,18.18L1306.37,174.08z"/>
					</g>
				</g>
				<g>
					<g>
						<path d="M1422.32,377.64l-77.79-159.58h57.07l59.98,134.13L1422.32,377.64z M1379.79,453.25l105.78-235.18h45.8
							l-102.51,235.18H1379.79z"/>
					</g>
				</g>
				<g>
					<g>
						<path d="M1607.34,218.06l4,28.35l-0.73-2.55c5.57-9.93,13.45-17.99,23.63-24.17c10.18-6.18,22.66-9.27,37.44-9.27
							c15.02,0,27.56,4.43,37.62,13.27c10.05,8.85,15.21,20.3,15.45,34.35v118.87h-50.89v-99.96c-0.24-7.03-2.13-12.66-5.63-16.9
							c-3.52-4.24-9.39-6.36-17.63-6.36c-7.76,0-14.54,2.54-20.36,7.63c-5.82,5.09-10.3,11.99-13.45,20.72
							c-3.15,8.72-4.73,18.78-4.73,30.17v64.7h-50.89V218.06H1607.34z"/>
					</g>
				</g>
				<g>
					<g>
						<path d="M1911.96,362.74c-7.03,5.58-15.81,10.06-26.35,13.45c-10.54,3.39-20.9,5.09-31.08,5.09c-18.18,0-33.99-3.33-47.44-10
							c-13.45-6.66-23.87-16.23-31.26-28.72c-7.4-12.48-11.09-27.56-11.09-45.26c0-17.69,4-32.77,12-45.26
							c8-12.48,18.48-21.99,31.44-28.54c12.96-6.54,26.59-9.81,40.89-9.81c14.3,0,26.72,1.94,37.26,5.82
							c10.54,3.88,19.57,8.97,27.08,15.27l-24.72,32.72c-3.4-2.66-8.06-5.39-14-8.18c-5.94-2.78-12.9-4.18-20.9-4.18
							c-7.03,0-13.45,1.82-19.27,5.45s-10.42,8.61-13.81,14.9c-3.4,6.3-5.09,13.58-5.09,21.81c0,7.76,1.82,14.9,5.45,21.45
							c3.63,6.54,8.66,11.69,15.08,15.45c6.42,3.76,14,5.63,22.72,5.63c5.57,0,10.72-0.78,15.45-2.36
							c4.73-1.57,8.78-3.82,12.18-6.72L1911.96,362.74z"/>
					</g>
				</g>
			</g>
		</g>
		<g>
			<g>
				<g>
					<path class="st0" d="M638.62,161.72c0-7.51,2.96-13.69,8.91-18.54c5.94-4.85,12.3-7.27,19.08-7.27
						c6.78,0,13.02,2.43,18.72,7.27c5.69,4.85,8.54,11.03,8.54,18.54c0,7.51-2.85,13.63-8.54,18.36c-5.7,4.73-11.94,7.09-18.72,7.09
						c-6.79,0-13.15-2.36-19.08-7.09C641.58,175.35,638.62,169.23,638.62,161.72z"/>
				</g>
			</g>
		</g>
	</g>
</g>
</svg>
